<svg width="492" height="615" viewBox="0 0 492 615" fill="none" xmlns="http://www.w3.org/2000/svg">
<g clip-path="url(#clip0)">
<rect width="492" height="615" fill="#C4C4C4"/>
<g clip-path="url(#clip1)">
<path d="M492 -36H-36V623H492V-36Z" fill="#FFE2E0"/>
<path d="M239.922 308.217C230.321 308.213 220.815 306.317 211.947 302.638C203.08 298.959 195.025 293.569 188.243 286.777L168.508 267.022C154.806 253.311 136.217 245.599 116.828 245.582L-35.6252 245.436V625H492V308.217H239.922Z" fill="#102C60"/>
<path d="M398.48 517.32H318.836C306.401 517.32 296.321 527.393 296.321 539.818C296.321 552.243 306.401 562.316 318.836 562.316H398.48C410.915 562.316 420.995 552.243 420.995 539.818C420.995 527.393 410.915 517.32 398.48 517.32Z" fill="#FFAFA1"/>
<path d="M423.647 308.091L366.536 520.838C365.24 525.672 365.073 530.739 366.049 535.648C367.025 540.557 369.118 545.175 372.165 549.146C375.213 553.117 379.133 556.334 383.623 558.548C388.114 560.763 393.054 561.915 398.061 561.916C405.245 561.916 412.229 559.547 417.93 555.178C423.63 550.808 427.731 544.682 429.595 537.747L480.767 346.986C481.995 342.409 482.153 337.611 481.229 332.963C480.305 328.316 478.324 323.943 475.438 320.183C472.553 316.423 468.841 313.377 464.589 311.28C460.338 309.183 455.661 308.092 450.92 308.091H423.647Z" fill="#FFAFA1"/>
<path d="M186.293 381.456L178.346 384.38C177.393 384.721 176.541 385.298 175.869 386.056L168.254 394.613C167.992 394.859 167.811 395.178 167.732 395.528C167.654 395.879 167.683 396.245 167.816 396.579C167.948 396.913 168.178 397.2 168.475 397.401C168.772 397.603 169.123 397.711 169.483 397.712H169.717C171.077 397.718 172.391 397.218 173.402 396.308L179.526 390.89L188.068 387.479L189.774 381.505H186.293V381.456Z" fill="#C78982"/>
<path d="M411.429 315.293C408.777 316.979 361.378 371.866 361.378 371.866L252.169 396.23C249.356 396.857 246.429 396.749 243.669 395.918C240.91 395.086 238.411 393.56 236.412 391.484L219.397 373.786C217.981 372.312 216.197 371.242 214.229 370.689C212.261 370.135 210.18 370.118 208.203 370.638L188.36 375.862C187.339 376.131 186.407 376.662 185.654 377.402C184.902 378.142 184.356 379.066 184.07 380.082L179.263 397.078C179.201 397.298 179.193 397.529 179.24 397.753C179.287 397.976 179.386 398.185 179.531 398.362C179.675 398.538 179.86 398.678 180.069 398.768C180.279 398.859 180.507 398.897 180.735 398.881C181.637 398.815 182.507 398.52 183.263 398.023C184.019 397.527 184.636 396.846 185.055 396.045L190.788 385.13C191.006 384.721 191.316 384.367 191.693 384.097C192.07 383.826 192.505 383.646 192.963 383.571L203.201 381.982C203.769 381.898 204.349 381.982 204.869 382.225C205.389 382.467 205.826 382.857 206.126 383.347L210.787 390.763C211.391 391.732 211.72 392.846 211.741 393.987C211.762 395.128 211.472 396.254 210.904 397.244C210.135 398.605 208.882 399.627 207.394 400.109L198.511 400.255C195.964 400.3 193.447 400.818 191.09 401.785L189.53 402.429C189.268 402.532 189.043 402.712 188.884 402.944C188.725 403.177 188.64 403.453 188.64 403.734C188.64 404.016 188.725 404.292 188.884 404.525C189.043 404.757 189.268 404.937 189.53 405.04L204.156 408.627L233.662 415.449C235.652 415.909 237.685 416.157 239.727 416.189L363.562 418.343L402.897 392.8L411.429 315.293Z" fill="#C78982"/>
<path d="M264.241 253.895L258.946 263.748C258.625 264.345 258.424 264.999 258.356 265.674C258.288 266.348 258.354 267.029 258.549 267.678C258.745 268.327 259.067 268.931 259.496 269.456C259.926 269.981 260.455 270.415 261.052 270.735L290.149 286.329L320.23 230.418C320.372 230.155 320.461 229.866 320.491 229.569C320.521 229.272 320.492 228.972 320.406 228.686C320.32 228.4 320.178 228.133 319.989 227.902C319.8 227.671 319.567 227.479 319.304 227.338L289.651 211.462C289.388 211.32 289.1 211.232 288.803 211.202C288.505 211.171 288.205 211.2 287.919 211.286C287.632 211.372 287.366 211.514 287.135 211.703C286.903 211.892 286.711 212.125 286.57 212.388L280.135 224.405C278.231 222.229 275.828 220.547 273.131 219.502C270.435 218.457 267.525 218.081 264.652 218.406C261.778 218.73 259.026 219.745 256.63 221.365C254.235 222.984 252.267 225.159 250.897 227.704C249.526 230.249 248.792 233.089 248.759 235.979C248.726 238.869 249.393 241.724 250.705 244.3C252.016 246.876 253.933 249.097 256.29 250.771C258.647 252.445 261.376 253.524 264.241 253.914V253.895ZM253.232 236.177C253.24 233.302 254.169 230.506 255.884 228.198C257.599 225.89 260.01 224.192 262.761 223.355C265.513 222.517 268.461 222.584 271.172 223.545C273.883 224.505 276.215 226.31 277.824 228.693L266.581 249.597C263.035 249.571 259.643 248.147 257.143 245.633C254.643 243.12 253.237 239.721 253.232 236.177Z" fill="#276EF1"/>
<path d="M301.07 156.185C301.148 155.132 301.275 154.099 301.421 153.057C304.463 131.616 321.975 114.493 345.299 109.854C353.171 108.174 361.295 108.042 369.218 109.464C386.672 112.846 399.504 124.96 403.453 144.734C406.593 160.609 405.023 189.32 394.96 201.015L410.493 280.725L364.586 275.082C362.149 261.38 364.499 253.008 361.759 233.643C361.671 232.99 361.291 226.929 360.735 226.568C360.344 226.301 359.882 226.158 359.409 226.158C358.935 226.158 358.473 226.301 358.083 226.568C347.913 233.526 335.149 238.312 330.878 233.098C329.054 230.773 327.943 227.97 327.68 225.028L327.348 224.833C326.1 224.151 323.974 223.255 323.623 218.655L323.155 217.826C322.12 217.781 321.123 217.419 320.301 216.787C319.48 216.156 318.872 215.287 318.563 214.298C318.046 212.028 318.933 210.546 317.519 208.695C312.946 209.874 307.534 209.591 308.597 204.104C308.695 203.637 309.475 198.881 310.226 194.174C310.889 190.061 308.159 183.356 308.159 183.356C305.896 178.532 302.864 174.166 301.938 169.614C300.879 165.221 300.585 160.678 301.07 156.185Z" fill="#C78982"/>
<path d="M304.502 421.706L401.22 434.989L422.847 375.043C443.187 325.34 440.018 304.602 439.57 293.599C439.321 286.221 437.337 279.005 433.78 272.536C430.223 266.067 425.191 260.525 419.093 256.361C416.168 254.411 413.243 252.95 410.659 252.599L377.272 248.077L357.771 259.362L306.091 318.06L304.502 421.706Z" fill="white"/>
<path d="M324.537 539.994H161.794C142.168 538.717 129 504.115 129 484.537C129.003 475.197 132.537 466.201 138.898 459.34C145.259 452.478 153.981 448.255 163.327 447.51L277.571 440.318C293.583 439.623 313.999 417 313.999 417L407 417.676L396.778 473.985C393.684 506.948 368.779 534.153 335.911 539.198C332.148 539.777 328.344 540.043 324.537 539.994Z" fill="black"/>
<path d="M271.856 258.514L277.063 252.599L266.991 243.73L263.919 247.219C263.638 247.539 263.423 247.911 263.287 248.314C263.15 248.717 263.094 249.143 263.122 249.567C263.15 249.992 263.261 250.407 263.45 250.788C263.639 251.169 263.901 251.51 264.221 251.79L271.856 258.514Z" fill="#C78982"/>
<path d="M268.863 265.911L274.07 260.005L263.997 251.137L261.511 253.963C261.147 254.369 260.867 254.843 260.688 255.358C260.508 255.873 260.433 256.418 260.467 256.962C260.501 257.506 260.642 258.038 260.883 258.527C261.124 259.016 261.46 259.453 261.872 259.811L268.863 265.911Z" fill="#C78982"/>
<path d="M351.15 266.896L413.087 261.682V228.888L365.454 238.409C362.974 238.903 360.69 240.108 358.883 241.877C357.075 243.645 355.822 245.901 355.274 248.369L351.15 266.896Z" fill="white"/>
<path d="M422.038 222.913C427.641 222.91 433.118 221.245 437.775 218.131C442.432 215.017 446.061 210.592 448.203 205.417C450.345 200.242 450.903 194.548 449.807 189.056C448.712 183.563 446.012 178.519 442.048 174.56C438.084 170.601 433.035 167.906 427.539 166.814C422.043 165.723 416.347 166.285 411.17 168.429C405.994 170.573 401.569 174.203 398.457 178.86C395.344 183.517 393.683 188.992 393.683 194.593C393.688 202.106 396.678 209.309 401.995 214.62C407.312 219.93 414.521 222.913 422.038 222.913Z" fill="black"/>
<path d="M-37 416.394H312.761C328.879 416.394 341.935 431.013 341.935 448.964V623.977H-37V416.394Z" fill="#1E54B7"/>
<path d="M419.054 177.469C418.079 174.419 416.831 170.872 415.486 167.051L396.179 203.822V203.939C398.623 202.212 400.863 200.214 402.858 197.984C406.45 193.781 409.201 188.927 410.961 183.687C411.966 180.81 412.818 177.882 413.516 174.916C414.033 172.753 419.727 179.497 419.054 177.469Z" fill="black"/>
<path d="M415.485 167.051C410.2 152.121 402.614 133.117 394.482 124.102C382.342 110.614 367.034 105.127 349.297 107.652C347.961 107.846 346.616 108.061 345.26 108.324C325.096 112.339 309.28 125.739 303.41 143.135C302.343 146.422 301.653 149.819 301.352 153.261L301.274 154.236C303.826 159.904 307.692 164.883 312.551 168.76C317.411 172.638 323.125 175.303 329.22 176.534C334.069 177.443 338.45 180.009 341.613 183.793C344.776 187.577 346.524 192.342 346.557 197.273V197.341L351.949 191.493C354.825 188.358 356.506 184.311 356.698 180.062V179.272C356.734 178.094 357.017 176.936 357.529 175.873C358.04 174.81 358.768 173.866 359.666 173.101C360.564 172.337 361.613 171.768 362.744 171.433C363.875 171.098 365.064 171.003 366.234 171.154L366.917 171.291L368.292 171.612C370.248 172.072 371.992 173.178 373.24 174.753C374.488 176.327 375.166 178.277 375.166 180.286V182.898C375.168 184.19 374.888 185.467 374.347 186.64L371.422 192.946C370.84 194.163 370.534 195.494 370.525 196.844C370.525 198.617 371.056 200.35 372.05 201.82C373.044 203.289 374.455 204.427 376.102 205.089L386.565 209.318L396.842 211.267L396.12 204.124V203.978L415.485 167.051Z" fill="black"/>
<path d="M106.073 109.406L90.1699 113.021L141.098 336.723L157.041 333.127L106.073 109.406Z" fill="white"/>
<path d="M87.342 411.112H74.7927V236.44C74.8005 231.236 76.8733 226.246 80.5566 222.567C84.2399 218.887 89.2329 216.818 94.4406 216.813H129.163V229.346H94.4406C92.5587 229.348 90.7546 230.097 89.424 231.427C88.0933 232.756 87.3446 234.56 87.342 236.44V411.112Z" fill="white"/>
<path d="M123.771 407.292H27.3552V416.394H123.752L123.771 407.292Z" fill="white"/>
<path d="M210.67 409.056H148.411V416.394H210.67V409.056Z" fill="white"/>
<path d="M263.1 260.931L270.501 247.628L268.083 245.494C267.729 245.184 267.439 244.806 267.231 244.384C267.023 243.961 266.901 243.502 266.871 243.032C266.841 242.562 266.904 242.091 267.057 241.645C267.21 241.2 267.449 240.789 267.761 240.436L268.97 239.072C269.183 238.828 269.443 238.628 269.733 238.484C270.024 238.341 270.34 238.256 270.664 238.235C270.987 238.214 271.312 238.258 271.619 238.363C271.925 238.468 272.208 238.633 272.451 238.848H272.5C272.905 239.175 273.415 239.344 273.935 239.325C274.456 239.306 274.952 239.098 275.331 238.742C275.71 238.385 275.948 237.903 275.999 237.385C276.05 236.867 275.912 236.348 275.61 235.924L273.572 233.361C272.666 232.191 272.051 229.58 273.036 228.488C273.307 228.186 273.634 227.94 274 227.765C274.366 227.589 274.763 227.488 275.169 227.468C275.574 227.447 275.979 227.506 276.361 227.643C276.744 227.78 277.095 227.991 277.395 228.264L291.27 240.933L286.795 228.147C286.385 226.986 286.224 225.751 286.323 224.524C286.422 223.296 286.779 222.103 287.37 221.023L288.228 219.454C288.386 219.193 288.613 218.981 288.885 218.842C289.157 218.703 289.462 218.643 289.766 218.669C290.07 218.694 290.361 218.804 290.606 218.986C290.851 219.167 291.041 219.414 291.153 219.697L293.932 227.494L304.278 246.44C308.944 257.489 311.779 269.223 312.673 281.183L318.329 357.092L306.501 364.635L299.675 378.708L288.511 411.521C283.889 397.254 285.351 368.504 286.268 339.218C286.736 324.454 287.536 307.174 288.052 296.873C288.525 290.619 286.554 284.426 282.553 279.594L263.1 260.931Z" fill="#C78982"/>
<path d="M315.745 352.687C327.21 339.467 337.208 325.043 345.563 309.669C354.046 294.31 360.559 278.269 371.627 264.43C378.452 255.951 387.657 250.893 398.626 251.088C408.299 251.273 418.547 255.357 423.92 263.758C429.293 272.158 429.302 283.98 422.945 291.962L344.851 389.944C311.279 432.426 299.334 424.23 294.868 421.988C293.601 421.355 292.431 419.152 291.358 416.141C289.018 409.369 288.285 402.146 289.217 395.042C290.15 387.938 292.722 381.148 296.731 375.209L299.334 371.311L315.745 352.687Z" fill="#C78982"/>
<path d="M348.361 292.488C352.934 283.717 363.767 271.7 370.057 263.826C376.775 255.425 385.833 250.27 396.52 250.006L398.012 250.231L406.027 251.01C413.36 252.745 420.195 256.721 424.3 263.114C429.907 271.885 429.887 284.087 423.325 292.351C423.325 292.351 405.988 315.322 390.923 334.209L348.361 292.488Z" fill="white"/>
<path d="M57.8244 327.845C57.8244 331.374 57.8244 334.923 57.8244 338.472L57.9748 356L48.6208 343.909C45.8136 340.271 42.2845 335.754 43.1267 330.87C43.638 328.003 45.6632 325.611 47.929 323.752C48.6609 323.159 57.5336 317.287 57.4434 317C58.4259 320.134 57.8043 324.513 57.8244 327.845Z" fill="#368759"/>
<path d="M24.9764 323C23.0696 322.98 21.2127 323.609 19.7108 324.782C18.209 325.956 17.1516 327.605 16.7125 329.459L14 341.113L23.1389 342.793C25.8997 343.305 28.7527 342.861 31.2271 341.535C33.7015 340.209 35.6496 338.08 36.75 335.5L42 323.175L24.9764 323Z" fill="#2B6B46"/>
<path d="M30.0165 314.295C30.2395 315.67 30.9402 316.931 32.0027 317.868C33.0653 318.806 34.4263 319.365 35.8613 319.453L44.8915 320L44.9987 313.202C45.0344 311.149 44.3452 309.146 43.045 307.524C41.7448 305.902 39.9116 304.758 37.8485 304.282L28 302L30.0165 314.295Z" fill="#368759"/>
<path d="M138.637 353.098L139 352.992L114 337C115.718 349.749 126.152 356.574 138.637 353.098Z" fill="#368759"/>
<path d="M106.381 387.859C107.494 386.379 108.063 384.569 107.994 382.727C107.926 380.885 107.223 379.121 106.002 377.726L98.3326 369L91.7501 375.178C89.7624 377.045 88.4784 379.523 88.1096 382.206C87.7408 384.889 88.3091 387.616 89.7209 389.937L96.4588 401L106.381 387.859Z" fill="#2B6B46"/>
<path d="M72.3958 324.01C70.5386 323.92 68.7054 324.449 67.1982 325.509C65.6909 326.57 64.5995 328.098 64.1035 329.842L61 340.783L69.8112 342.689C72.4814 343.301 75.2863 343.004 77.7588 341.847C80.2313 340.69 82.2222 338.744 83.4 336.333L89 324.896L72.3958 324.01Z" fill="#2B6B46"/>
<path d="M-5 383.49V356.105C-5 354.751 -4.45402 353.453 -3.48216 352.495C-2.51031 351.538 -1.19219 351 0.182222 351H55.8178C57.1922 351 58.5103 351.538 59.4822 352.495C60.454 353.453 61 354.751 61 356.105V383.49C61 392.112 57.5232 400.381 51.3345 406.478C45.1458 412.575 36.7522 416 28 416C19.2479 416 10.8542 412.575 4.66548 406.478C-1.52322 400.381 -5 392.112 -5 383.49Z" fill="white"/>
<path d="M109.042 314.472C109.042 314.472 96.9736 324.481 93 327.306L104.014 327.973C107.452 328.179 110.858 327.197 113.669 325.187C116.479 323.178 118.527 320.261 119.474 316.919L124 301H123.645L109.042 314.472Z" fill="#2B6B46"/>
<path d="M93 327H93.3526C97.2217 324.188 108.867 314.315 108.867 314.315L123 301L103.292 303.311C101.04 303.567 98.9396 304.609 97.3399 306.265C95.7401 307.921 94.7368 310.092 94.4962 312.417L93 327Z" fill="#368759"/>
<path d="M68.181 309.514C68.181 307.064 68.2535 304.594 68.2535 302.144V290C70.4793 292.808 72.7259 295.598 74.9725 298.416C76.9913 300.943 79.5485 304.1 78.8963 307.471C78.3907 309.454 77.1372 311.201 75.3659 312.39C74.8379 312.797 68.3156 316.806 68.388 317C67.6737 314.811 68.1603 311.8 68.181 309.514Z" fill="#2B6B46"/>
<path d="M94.0603 359.953C95.2973 359.947 96.4954 359.521 97.457 358.744C98.4185 357.968 99.0862 356.887 99.3499 355.681L101 348.107L95.0409 347.11C93.2444 346.81 91.399 347.128 89.8074 348.012C88.2158 348.895 86.9725 350.293 86.2813 351.974L83 360L94.0603 359.953Z" fill="#368759"/>
</g>
</g>
<defs>
<clipPath id="clip0">
<rect width="492" height="615" fill="white"/>
</clipPath>
<clipPath id="clip1">
<rect width="529" height="634" fill="white" transform="translate(-37 -9)"/>
</clipPath>
</defs>
</svg>
